<svg xmlns="http://www.w3.org/2000/svg" viewBox="0 0 660 360" role="img" aria-labelledby="title desc">
  <title id="title">Quantitative aptitude quiz</title>
  <desc id="desc">Calculator, percentage, clock, and chart symbols on a teal background</desc>
  <defs><linearGradient id="bg" x2="1" y2="1"><stop stop-color="#064e3b"/><stop offset="1" stop-color="#0891b2"/></linearGradient></defs>
  <rect width="660" height="360" fill="url(#bg)"/>
  <circle cx="90" cy="75" r="58" fill="#fff" opacity=".1"/><circle cx="585" cy="285" r="95" fill="#fff" opacity=".08"/>
  <rect x="80" y="88" width="190" height="205" rx="20" fill="#ecfeff"/>
  <rect x="108" y="115" width="134" height="42" rx="7" fill="#a5f3fc"/>
  <g fill="#0e7490"><rect x="108" y="180" width="32" height="32" rx="6"/><rect x="158" y="180" width="32" height="32" rx="6"/><rect x="208" y="180" width="32" height="32" rx="6"/><rect x="108" y="230" width="32" height="32" rx="6"/><rect x="158" y="230" width="32" height="32" rx="6"/><rect x="208" y="230" width="32" height="32" rx="6"/></g>
  <circle cx="430" cy="175" r="105" fill="none" stroke="#ccfbf1" stroke-width="13"/>
  <path d="M430 175V98M430 175l62 38" stroke="#facc15" stroke-width="13" stroke-linecap="round"/>
  <circle cx="430" cy="175" r="13" fill="#facc15"/>
  <text x="520" y="100" fill="#fff" font-family="Arial,sans-serif" font-size="58" font-weight="700">%</text>
  <path d="M345 285h190M365 285v-40M410 285v-70M455 285v-105M500 285v-145" stroke="#67e8f9" stroke-width="20"/>
  <text x="34" y="338" fill="#fff" font-family="Arial,sans-serif" font-size="27" font-weight="700">QUANTITATIVE APTITUDE</text>
</svg>
